<svg width="153" height="30" viewBox="0 0 153 30" fill="none" xmlns="http://www.w3.org/2000/svg">
<path d="M5.12134 30H0.0125834L0 0L5.10876 4.89184L5.12134 30Z" fill="#250D53"/>
<path d="M24.9666 29.7348H20.3218V27.5636C19.0495 29.1858 17.4728 30 15.5978 30C13.7229 30 12.1462 29.4511 10.8739 28.3531C9.6016 27.2552 8.9624 25.7872 8.9624 23.9491C8.9624 22.1109 9.61986 20.7416 10.9348 19.8287C12.2497 18.9158 14.0516 18.4594 16.3344 18.4594H20.0235V18.3607C20.0235 16.4486 19.0251 15.4925 17.0223 15.4925C16.164 15.4925 15.263 15.6652 14.3073 16.0106C13.3515 16.3561 12.548 16.7817 11.8905 17.2998L9.68073 14.0615C12.0062 12.3468 14.6604 11.4894 17.6493 11.4894C19.7983 11.4894 21.5576 12.0322 22.9212 13.1239C24.2848 14.2157 24.9666 15.9366 24.9666 18.2929V29.7348ZM19.9931 22.9005V22.0308H16.8945C14.916 22.0308 13.9298 22.6537 13.9298 23.8997C13.9298 24.5474 14.1673 25.0408 14.636 25.3862C15.1108 25.7317 15.7805 25.9044 16.6632 25.9044C17.5398 25.9044 18.3129 25.633 18.9825 25.084C19.6582 24.5412 19.9931 23.8134 19.9931 22.9005Z" fill="#250D53"/>
<path d="M38.408 30H33.4223L27.5273 12.14H32.5131L35.8944 22.9296L39.2637 12.1338H43.9227L47.3039 22.9235L50.6793 12.1277H55.6947L49.8176 29.9939H44.8021L41.617 20.266L38.408 30Z" fill="#250D53"/>
<path d="M69.2891 11.7742C71.4743 11.7742 73.3871 12.6118 75.0152 14.2808C76.6432 15.9559 77.4604 18.1044 77.4604 20.7323C77.4604 23.3603 76.6247 25.5574 74.9533 27.3356C73.2819 29.1078 71.3752 30 69.2458 30C67.1163 30 65.3458 29.1382 63.9345 27.4085V29.739H58.9079L58.8955 4.84928L63.9159 0V5.37123L63.9221 14.038C65.3149 12.5329 67.0977 11.7742 69.2891 11.7742ZM63.8664 20.9205C63.8664 22.3528 64.2749 23.5242 65.092 24.4346C65.9092 25.3449 66.8934 25.7941 68.0572 25.7941C69.2148 25.7941 70.2362 25.3389 71.1029 24.4285C71.9757 23.5181 72.409 22.3528 72.409 20.9326C72.409 19.5124 71.9819 18.3168 71.1338 17.3518C70.2857 16.3868 69.2705 15.9073 68.0882 15.9073C66.9058 15.9073 65.903 16.3868 65.092 17.3397C64.2749 18.2925 63.8664 19.4882 63.8664 20.9205Z" fill="#250D53"/>
<path d="M90.5324 16.0963C88.9731 16.0963 87.8133 16.6156 87.0465 17.6481C86.2797 18.6806 85.8996 20.0512 85.8996 21.7479L85.906 29.3617H80.674L80.6611 11.7852H85.8932V14.1038C86.5697 13.3853 87.4073 12.7755 88.419 12.2743C89.4306 11.7732 90.455 11.5135 91.5053 11.4894L91.544 16.0963H90.5324Z" fill="#250D53"/>
<path d="M112.029 20.7601C112.029 23.3613 111.119 25.5496 109.297 27.331C107.476 29.1124 105.187 30 102.43 30C99.6729 30 97.3838 29.1124 95.5624 27.3372C93.7411 25.5619 92.8242 23.3675 92.8242 20.7663C92.8242 18.165 93.7349 15.9706 95.5562 14.1769C97.3775 12.3893 99.6667 11.4894 102.424 11.4894C105.181 11.4894 107.47 12.3832 109.291 14.1707C111.119 15.9645 112.029 18.1589 112.029 20.7601ZM97.9264 20.7724C97.9264 22.2395 98.3506 23.4353 99.1926 24.3599C100.035 25.2845 101.114 25.7407 102.436 25.7407C103.752 25.7407 104.831 25.2784 105.673 24.3538C106.515 23.4291 106.94 22.2333 106.94 20.7663C106.94 19.2992 106.515 18.0972 105.673 17.1665C104.831 16.2357 103.746 15.7672 102.43 15.7672C101.114 15.7672 100.035 16.2357 99.1926 17.1726C98.3443 18.1034 97.9264 19.3054 97.9264 20.7724Z" fill="#250D53"/>
<path d="M120.738 29.3616H115.882L115.87 5.10632H120.726L120.732 17.5603L126.133 11.7412L132.245 11.7351L125.619 18.8655L132.514 29.3556L126.755 29.3616L122.317 22.6301L120.732 24.2979L120.738 29.3616Z" fill="#250D53"/>
<path d="M145.006 16.0963C143.538 16.0963 142.447 16.6156 141.725 17.6481C141.003 18.6806 140.646 20.0512 140.646 21.7479L140.652 29.3617H135.727L135.715 11.7852H140.64V14.1038C141.276 13.3853 142.065 12.7755 143.017 12.2743C143.969 11.7732 144.933 11.5135 145.922 11.4894L145.958 16.0963H145.006Z" fill="#250D53"/>
<path d="M148.073 29.1673C147.517 28.6122 147.238 27.9303 147.238 27.1277C147.238 26.3251 147.517 25.6433 148.073 25.0881C148.63 24.533 149.314 24.2554 150.119 24.2554C150.924 24.2554 151.608 24.533 152.165 25.0881C152.721 25.6433 153 26.3251 153 27.1277C153 27.9363 152.721 28.6122 152.165 29.1673C151.608 29.7225 150.924 30.0001 150.119 30.0001C149.314 30.0001 148.63 29.7225 148.073 29.1673Z" fill="#250D53"/>
<path d="M74.8994 29.4261V29.9999H78.1003V25.5319H77.6766C77.3 27.558 76.441 28.7116 74.8994 29.4261Z" fill="#250D53"/>
</svg>
